<svg xmlns="http://www.w3.org/2000/svg" width="32" height="32" viewBox="0 0 32 32" fill="none">
  <path d="M30.7246 13.8223C30.9802 14.1302 31.163 14.7423 31.2563 15.1321C31.4594 16.023 30.6498 16.7378 29.9389 17.0878C26.9475 18.5611 23.5864 19.2488 20.3058 19.676L19.8984 19.6542C20.0894 19.434 22.6875 18.5065 23.2525 18.257C26.0718 17.0113 28.2644 15.6747 30.7246 13.8223Z" fill="white"/>
  <path d="M15.4093 0.0106524C15.7058 -0.00687398 16.1079 -0.0324527 16.2988 0.205841C18.3902 2.81651 19.46 8.66847 19.7088 11.8198L19.3322 10.7394C17.8866 6.9683 16.2945 3.6507 13.7266 0.488328C14.4214 0.22565 14.6807 0.149557 15.4093 0.0106524Z" fill="white"/>
  <path d="M11.1719 11.5704L11.3745 11.5674L11.3692 11.6588C7.05172 13.3578 4.21712 14.5481 0.494233 17.4656C0.255504 16.955 -0.271051 15.3006 0.171245 14.9503C2.75633 12.9028 8.07347 11.9166 11.1719 11.5704Z" fill="white"/>
  <path d="M11.5156 19.7803C11.7288 19.9869 11.9667 20.7279 12.0863 21.0342C12.9817 23.3294 14.023 25.6135 15.2799 27.7331C15.8638 28.7177 16.7851 29.6751 17.3184 30.6924L17.2144 30.876C14.9517 31.5634 14.6839 31.2745 13.7998 29.1913C12.5072 26.1455 11.8609 23.047 11.5156 19.7803Z" fill="white"/>
  <path d="M28.7432 11.2666C29.1222 11.5089 29.9223 12.5593 30.2157 12.9357C27.743 15.3027 24.8889 16.7096 21.8193 18.0801L20.2578 18.6967C23.8567 16.1579 25.8047 14.5773 28.7432 11.2666Z" fill="white"/>
  <path d="M12.8801 1.0625C14.9259 2.60047 17.6367 8.24211 18.5564 10.8159L17.8421 9.83984C15.9166 7.12489 13.7907 4.63614 11.2031 2.52394C11.6896 2.05073 12.3531 1.5122 12.8801 1.0625Z" fill="white"/>
  <path d="M12.7422 20.6426C13.1194 20.943 14.8657 23.4784 15.3262 24.0404C16.7414 25.7356 18.2938 27.3113 19.9676 28.7516C19.8208 28.9189 19.5196 29.1726 19.3441 29.33C19.0285 29.6125 18.6165 29.9275 18.2814 30.1986C16.2034 28.0672 13.6308 23.5941 12.7422 20.6426Z" fill="white"/>
  <path d="M10.3104 12.8232L10.4017 12.8424L10.4423 12.9365C8.43762 14.3136 6.5414 15.8422 4.77025 17.509C4.01379 18.2324 3.27397 19.2317 2.54124 19.8546C2.18636 19.7569 2.18037 19.6423 1.88623 19.3224C1.61757 19.0268 1.29208 18.6053 1.03125 18.2884C3.47406 15.8855 7.16081 14.1293 10.3104 12.8232Z" fill="white"/>
  <path d="M17.875 0.80957C18.7979 1.22922 20.1415 2.61391 20.9003 3.36134C21.3342 6.25842 21.1294 9.49025 20.6672 12.3857C20.6369 12.5386 20.6467 12.4873 20.549 12.6249C20.0153 7.86824 19.6676 5.43196 17.875 0.80957Z" fill="white"/>
  <path d="M5.34576 10.1577C7.57956 9.93745 10.8547 10.3302 13.0832 10.6687C10.6333 10.9051 8.99724 11.0927 6.59809 11.5617C4.57559 11.9868 2.60076 12.6133 0.703125 13.4317C1.60122 12.1704 2.29008 11.3991 3.39729 10.3136C3.99253 10.2397 4.73648 10.2024 5.34576 10.1577Z" fill="white"/>
  <path d="M30.2766 17.9668L30.3009 17.9802L30.3276 18.1097C29.5131 19.2621 28.7916 19.9739 27.7955 20.9613C24.5832 21.3041 22.1553 21.1502 18.9792 20.7368L18.6406 20.6568C18.8143 20.5254 20.2618 20.3949 20.5692 20.3625C23.9691 20.004 27.09 19.2193 30.2766 17.9668Z" fill="white"/>
  <path d="M10.6116 18.5664C10.7432 18.9869 10.9081 21.0622 10.9903 21.6596C11.2447 23.3979 11.6044 25.1192 12.0674 26.8138C12.1653 27.1613 13.1847 30.1025 13.142 30.2515L12.9071 30.1729C11.9437 29.3618 11.1946 28.6961 10.2925 27.8141C9.92019 25.4354 10.0368 20.988 10.6116 18.5664Z" fill="white"/>
  <path d="M26.632 9.08008C27.1377 9.5227 27.6534 10.0976 28.1201 10.5903C26.2098 13.0808 24.5173 14.5591 22.1111 16.479C21.7577 16.7623 21.3372 17.038 20.9609 17.2969C23.4164 14.3408 24.8204 12.4728 26.632 9.08008Z" fill="white"/>
  <path d="M10.5731 3.11621C13.4344 5.38256 15.1286 7.39243 17.2618 10.2291C16.997 10.061 16.6543 9.77493 16.3998 9.57452C14.0856 7.56857 11.7374 6.07686 9.07031 4.61118L10.5731 3.11621Z" fill="white"/>
  <path d="M14.1016 21.1875C14.478 21.4034 16.426 22.9938 16.9409 23.3769C18.7369 24.7128 20.1553 25.5946 22.1232 26.6438L21.3188 27.4504L20.6398 28.1303C18.4171 26.4689 15.6381 23.573 14.1016 21.1875Z" fill="white"/>
  <path d="M9.83785 14.2441C10.0124 14.4278 9.22497 15.2144 9.0496 15.4276C7.34061 17.5005 5.85435 19.7471 4.61532 22.1308L4.10291 21.6389L3.11719 20.6168C5.35109 17.8583 7.04005 16.3802 9.83785 14.2441Z" fill="white"/>
  <path d="M21.8931 4.39258C22.5506 4.92773 23.1715 5.59254 23.7669 6.2028C23.2521 8.72214 22.734 10.3824 21.8051 12.7557C21.5677 13.3614 21.3759 13.7397 21.0781 14.3096C21.7773 10.5418 21.9462 8.20712 21.8931 4.39258Z" fill="white"/>
  <path d="M6.20133 7.47949C7.97062 7.87618 12.7447 9.08365 14.0698 10.1333L12.7497 9.9026C10.2856 9.36821 6.83631 9.32129 4.34375 9.35492L6.20133 7.47949Z" fill="white"/>
  <path d="M17.0625 21.2085C17.6476 21.1928 19.6055 21.5523 20.3054 21.6322C22.5141 21.8844 24.6438 22.0678 26.8693 21.8912L26.0758 22.7101L25.0076 23.7848C22.0329 23.1791 19.8104 22.4455 17.0625 21.2085Z" fill="white"/>
  <path d="M10.013 17.1592C10.0546 17.4408 9.94497 18.1247 9.88565 18.431C9.342 21.2337 9.26634 23.9823 9.31642 26.8294L8.3209 25.8555L7.46875 24.9949C7.99509 22.2893 8.84953 19.6579 10.013 17.1592Z" fill="white"/>
  <path d="M24.4891 6.92383C24.9988 7.40618 25.506 7.93121 26.0017 8.43164C24.9394 10.8165 23.5212 12.8914 21.9498 14.952L21.2109 15.8874C22.8135 12.2908 23.4173 10.7709 24.4891 6.92383Z" fill="white"/>
  <path d="M8.39763 5.2793C9.99383 5.61328 14.3488 8.85054 15.8 9.99172C15.4179 9.84857 14.9597 9.63857 14.5765 9.47605C12.2374 8.31136 9.42276 7.44767 6.90625 6.78112L8.39763 5.2793Z" fill="white"/>
  <path d="M15.625 21.417C16.2126 21.5702 18.2535 22.5116 18.9381 22.7837C20.8168 23.5307 22.3356 23.9904 24.2907 24.4762L23.5766 25.2089L22.7569 26.0098C20.4316 24.9218 17.556 23.1345 15.625 21.417Z" fill="white"/>
  <path d="M9.78843 15.6572C9.79638 15.9175 9.3506 16.8726 9.21039 17.1761C8.13954 19.495 7.40342 21.8121 6.75527 24.2793L6.17059 23.7026L5.22656 22.7588C6.45167 20.2143 7.98376 17.8294 9.78843 15.6572Z" fill="white"/>
</svg>
