<svg width="138" height="24" viewBox="0 0 138 24" fill="none" xmlns="http://www.w3.org/2000/svg">
<g clip-path="url(#clip0_4659_12316)">
<path d="M74.6717 6.86893C77.774 6.65971 79.5765 7.35525 81.1755 10.0373C82.2718 7.8532 84.2542 6.92444 86.6618 6.82239C88.3167 6.78503 90.1778 7.24854 91.4035 8.43425C94.1676 11.1085 93.1285 15.4853 93.3334 18.9228C93.3799 19.712 93.4109 21.837 93.2936 22.4832C93.2276 22.8447 93.0531 23.1783 92.793 23.441C91.7815 24.4662 89.8995 23.7899 89.7675 22.3786C89.688 21.5304 89.7216 20.6679 89.725 19.815L89.7405 14.8037C89.7392 13.3109 89.758 11.6979 88.5997 10.5774C87.1786 9.20225 84.4213 9.33062 83.0534 10.6917C82.5851 11.1668 82.2523 11.7558 82.0892 12.3988C81.7887 13.542 81.8985 17.7402 81.9019 19.1803C81.8877 20.6207 82.4531 23.8198 80.2847 23.9226C77.9505 24.0331 78.2834 21.5599 78.2895 20.011L78.3057 15.8546C78.3117 14.0203 78.5503 11.6924 76.9459 10.4034C76.1723 9.78224 75.0234 9.4945 74.0356 9.62534C70.1921 10.1342 70.4205 13.261 70.43 16.2307L70.4427 20.5969C70.4448 21.5277 70.5829 22.6359 69.9455 23.4172C69.0695 24.4911 66.9489 23.7526 66.8716 22.3967C66.8168 21.436 66.836 20.4331 66.8361 19.4562L66.839 14.3041L66.84 10.8715C66.835 9.90224 66.6484 8.69572 67.3198 7.91097C67.5931 7.58474 67.99 7.3827 68.4179 7.35139C68.9017 7.31157 69.3808 7.46381 69.7501 7.77421C70.3356 8.26957 70.3706 8.72883 70.4252 9.42224C70.5391 9.25497 70.6557 9.09003 70.7763 8.92741C71.7742 7.59398 73.0552 7.1074 74.6717 6.86893Z" fill="white"/>
<path d="M3.16578 12.9735C3.82015 12.9092 4.89954 12.9365 5.58689 12.936L9.79828 12.934C13.157 12.9328 16.5142 12.9245 19.8746 12.9455C20.8911 12.9182 21.7112 13.2691 22.0527 14.2733C22.4181 15.3483 21.7932 16.3474 20.763 16.707C20.2434 16.8268 15.971 16.7762 15.1895 16.7767L7.81939 16.7808C6.54199 16.781 5.27277 16.7867 3.98766 16.773C3.05835 16.7747 2.14319 16.582 1.80902 15.6073C1.35543 14.2842 1.94237 13.4443 3.16578 12.9735Z" fill="white"/>
<path d="M7.91136 0.22702L13.3904 0.217141C14.1226 0.216069 15.69 0.144477 16.3605 0.271747C18.5454 0.686492 18.4881 3.75044 16.1136 4.06482L10.3321 4.07274C9.7377 4.07334 7.88272 4.1374 7.45383 4.01532C5.19185 3.37151 5.2853 0.418525 7.91136 0.22702Z" fill="white"/>
<path d="M8.77442 19.3094L12.728 19.303C14.0841 19.2931 16.7213 18.9512 17.0095 20.8706C17.2056 22.1773 16.4274 23.0035 15.133 23.1947L10.8294 23.2019C10.2099 23.2025 8.92455 23.2396 8.35563 23.1242C8.05221 23.0597 7.76954 22.9227 7.53249 22.725C7.11727 22.3818 6.85785 21.8893 6.81169 21.3567C6.71379 20.1922 7.65586 19.3986 8.77442 19.3094Z" fill="white"/>
<path d="M28.9834 0H40.6044C41.8672 0.350762 42.3745 0.106154 43.8915 0.932942C45.1662 1.61676 46.1069 2.77929 46.5007 4.15702C46.8922 5.50248 46.8275 7.38229 46.0956 8.60948C45.2886 9.96253 44.2973 10.4695 42.8474 10.8802C43.8289 11.1434 44.853 11.4348 45.6451 12.0864C48.1181 14.1275 47.9482 18.6461 46.0099 20.9611C44.631 22.6265 42.2774 23.3969 40.1372 23.406C36.5573 23.4212 32.9548 23.3933 29.3728 23.4099C29.004 23.4116 28.7241 23.2968 28.7153 22.8923C28.6904 21.7417 28.7015 20.5671 28.7013 19.4167L28.7015 12.2578L28.6982 4.42704C28.6968 3.11501 28.6882 1.77136 28.7096 0.456766C28.712 0.307041 28.883 0.118636 28.9834 0ZM42.6806 19.3056C44.0139 17.6784 44.2171 15.3623 42.7917 13.6828C41.5633 12.2353 39.0841 12.488 37.3169 12.4931L32.295 12.4976C32.2757 13.361 32.184 19.7911 32.3841 20.249C33.2353 20.6572 38.9843 20.2842 40.2761 20.3642C40.952 20.406 42.1202 19.7626 42.6806 19.3056ZM32.2987 9.44729L37.2754 9.45806C38.6586 9.45992 40.9821 9.63743 42.0313 8.65356C42.794 7.87559 43.1088 7.27526 43.0881 6.17343C43.0203 2.58437 39.5695 2.94764 36.9531 2.98611C35.4603 3.00806 33.9214 2.96775 32.4247 2.99342C32.3649 3.08788 32.2901 3.25563 32.2915 3.36706C32.3165 5.34051 32.1798 7.4874 32.2987 9.44729Z" fill="white"/>
<path d="M97.0727 0H97.2856C98.2728 0.232073 98.9304 0.604501 98.9944 1.71833C99.0537 2.74928 99.0207 3.79965 99.0167 4.83397L99.0106 9.81208C100.316 8.03388 101.617 7.32293 103.833 6.96652C108.477 6.21965 112.916 9.0226 113.544 13.7761C114.267 18.6392 111.825 23.0197 106.602 23.8256L105.437 24H104.401C104.172 23.936 103.381 23.8246 103.09 23.7692C101.333 23.4346 99.9439 22.6883 98.9338 21.1997C98.9628 22.8245 98.9237 23.5726 97.1535 24H97.0518C96.8712 23.9511 96.5195 23.8279 96.3557 23.746C95.9602 23.5486 95.661 23.2034 95.5256 22.7872C95.2891 22.0543 95.4178 15.7001 95.4178 14.5745L95.4191 6.38651C95.4191 4.86919 95.4056 3.35116 95.44 1.83425C95.4656 0.684632 96.0525 0.311313 97.0727 0ZM105.428 20.9999C108.564 20.4719 110.675 17.54 110.148 14.445C109.621 11.35 106.655 9.25948 103.517 9.77119C100.367 10.2848 98.2384 13.2245 98.7674 16.331C99.2963 19.4375 102.281 21.5299 105.428 20.9999Z" fill="white"/>
<path d="M129.055 24C128.3 23.874 127.424 23.801 126.681 23.5967C122.028 22.3175 120.076 18.4297 120.71 13.8516C121.739 6.42748 132.064 4.40903 136.385 10.1429C137.25 11.2911 137.815 13.0925 137.873 14.5239C137.889 14.9249 138.079 15.8895 137.745 16.193C137.18 16.4728 133.637 16.3537 132.739 16.3526L124.149 16.3554C124.511 19.8752 127.172 21.276 130.554 21.0034C131.534 20.9244 132.287 20.6072 133.064 20.034C134.206 19.1928 135.812 16.9434 137.165 19.0126C137.277 19.7937 137.212 20.2433 136.689 20.9017C135.479 22.4243 133.421 23.4954 131.496 23.7852C131.013 23.8578 130.019 23.8965 129.63 24H129.055ZM124.201 13.8217L129.812 13.8272C131.284 13.8264 132.982 13.8681 134.435 13.8203C134.402 13.4686 134.374 13.0203 134.285 12.684C133.673 10.3936 131.137 9.46342 128.952 9.66652L128.941 9.66752C126.291 9.92746 124.545 11.1166 124.201 13.8217Z" fill="white"/>
<path d="M55.2774 24.0003C54.2274 23.798 53.4577 23.7728 52.4699 23.3057C49.9976 22.1367 49.2179 19.7872 49.1866 17.2521C49.1565 14.8145 49.1832 12.3281 49.1755 9.88586C49.1935 9.07604 49.1443 8.24103 49.9 7.72373C50.7181 7.16369 51.8777 7.30556 52.425 8.15693C52.875 8.85692 52.7731 9.85601 52.7697 10.6616L52.7491 14.9146C52.7409 17.5355 52.4658 20.3473 55.728 21.0695C58.0073 21.574 60.5515 20.8039 61.0366 18.3252C61.2614 17.1763 61.2061 16.0981 61.2042 14.9436L61.1951 10.8978C61.1914 9.77437 60.9504 8.32539 62.0734 7.62474C62.4446 7.39278 62.8951 7.31839 63.3226 7.41845C65.2546 7.85543 64.8042 10.196 64.8038 11.7216L64.8007 16.5761C64.7995 18.1702 64.8042 19.7644 64.8033 21.3585C64.8028 22.2958 64.8597 23.1297 63.9466 23.6718C63.523 23.9195 63.017 23.9917 62.5396 23.8725C61.242 23.5509 61.164 22.4341 61.1964 21.3344C60.2798 22.6935 59.1689 23.3519 57.5542 23.7279C57.1937 23.8118 55.9447 23.9483 55.7775 24.0003H55.2774Z" fill="white"/>
<path d="M0 8.1892C0.202784 7.56885 0.441453 7.08008 1.05509 6.77213C1.36035 6.6189 1.84305 6.62191 2.18636 6.6093C5.50985 6.48726 8.88018 6.5971 12.208 6.59823C13.8811 6.59881 21.7888 6.44063 22.7485 6.75771C23.1283 6.88322 23.4732 7.28564 23.6453 7.63294C23.8868 8.11507 23.9228 8.67252 23.7452 9.18097C23.4467 10.0307 22.5955 10.4441 21.723 10.449C19.938 10.4589 18.1523 10.4333 16.3667 10.4354L7.02149 10.445C5.50879 10.4457 3.99009 10.4413 2.47768 10.4441C1.1414 10.4467 0.389398 10.156 0 8.81453V8.1892Z" fill="white"/>
<path d="M116.804 0H117.436C117.571 0.0417358 117.704 0.0878766 117.836 0.138346C118.614 0.444305 118.906 1.07715 118.912 1.86299C118.939 5.08418 118.929 8.30659 118.929 11.528C118.929 14.9651 118.937 18.4031 118.917 21.8399C118.91 22.7154 118.795 23.4133 117.863 23.796C117.358 24.0037 116.746 23.9254 116.25 23.7131C115.599 23.4351 115.357 22.508 115.343 21.8707C115.331 20.6885 115.341 19.5151 115.345 18.3374L115.349 12.3034L115.347 5.50536C115.347 4.26524 115.215 2.1782 115.54 0.949097C115.667 0.470219 116.338 0.172862 116.804 0Z" fill="white"/>
</g>
<defs>
<clipPath id="clip0_4659_12316">
<rect width="138" height="24" fill="white"/>
</clipPath>
</defs>
</svg>
