<svg width="106" height="36" viewBox="0 0 106 36" fill="none" xmlns="http://www.w3.org/2000/svg">
<g clip-path="url(#clip0_4659_12369)">
<mask id="mask0_4659_12369" style="mask-type:luminance" maskUnits="userSpaceOnUse" x="0" y="0" width="106" height="36">
<path d="M106 0H0V36H106V0Z" fill="white"/>
</mask>
<g mask="url(#mask0_4659_12369)">
<path d="M21.6167 0.00586664C23.1352 0.0104587 24.6341 0.346721 26.0065 0.990653C27.379 1.63458 28.5913 2.57035 29.557 3.73136C30.5228 4.89238 31.2183 6.25009 31.5941 7.70777C31.9699 9.1655 32.0166 10.6874 31.731 12.165C33.124 12.661 34.3281 13.5716 35.1783 14.7721C36.0285 15.9727 36.4831 17.4043 36.4798 18.8708C36.4708 20.3426 36.0062 21.7763 35.1488 22.9782C34.2913 24.1801 33.0822 25.0924 31.6848 25.592C31.9069 26.1993 32.0217 26.8401 32.024 27.4861C32.0236 28.9242 31.4468 30.3032 30.4204 31.3201C29.394 32.3369 28.0021 32.9084 26.5505 32.9088C25.3351 32.9062 24.1563 32.4971 23.2048 31.7479C21.8381 33.6361 19.8606 35.0045 17.6007 35.6258C15.3409 36.2471 12.9345 36.084 10.7811 35.1635C8.62768 34.2431 6.85676 32.6207 5.76233 30.5656C4.66794 28.5105 4.31589 26.1465 4.76461 23.8659C3.36793 23.3673 2.16071 22.4536 1.30791 21.2497C0.455101 20.0457 -0.00168238 18.6102 4.65624e-06 17.1394C0.00169495 15.6685 0.461745 14.2341 1.3173 13.0321C2.17286 11.83 3.38219 10.919 4.78005 10.4236C4.55787 9.81627 4.44309 9.17546 4.44085 8.52947C4.44072 7.51584 4.72734 6.52246 5.26824 5.66203C5.80914 4.80165 6.5826 4.10861 7.5009 3.66166C8.4192 3.21473 9.44557 3.03174 10.4635 3.13346C11.4815 3.23518 12.4503 3.61752 13.26 4.23711C14.2143 2.92575 15.4699 1.8581 16.9229 1.12237C18.376 0.386651 19.9849 0.00393706 21.6167 0.00586664ZM6.07507 23.8812C5.95614 24.4695 5.89928 25.0685 5.90547 25.6685C5.90784 27.5805 6.52833 29.4416 7.67601 30.9788C8.82369 32.5161 10.4382 33.6487 12.283 34.2106C14.1277 34.7725 16.1056 34.7343 17.9268 34.1014C19.748 33.4686 21.3167 32.2744 22.4029 30.694L23.7289 23.8354L21.9558 20.4748L13.9384 16.8546L6.07507 23.8812ZM23.7906 30.694C24.5335 31.2504 25.4382 31.5538 26.3695 31.559C27.3008 31.5641 28.2089 31.2708 28.9581 30.7227C29.7073 30.1745 30.2576 29.4011 30.5267 28.5177C30.7958 27.6343 30.7693 26.6885 30.4512 25.8212L24.9931 24.5534L23.7906 30.694ZM23.3125 20.093L24.9006 23.1328L30.9137 24.5228C32.0979 24.1378 33.1326 23.3986 33.8753 22.407C34.618 21.4155 35.0322 20.2201 35.0609 18.9857C35.0897 17.7512 34.7315 16.5383 34.0358 15.5138C33.34 14.4893 32.3409 13.7037 31.1758 13.265L23.3125 20.093ZM5.55084 11.4932C4.36665 11.8781 3.33196 12.6173 2.58926 13.6089C1.84657 14.6005 1.43234 15.7958 1.40359 17.0303C1.37485 18.2647 1.73302 19.4777 2.42877 20.5022C3.12453 21.5266 4.12371 22.3123 5.28876 22.751L12.967 15.8771L11.564 12.8985L5.55084 11.4932ZM24.2099 1.84265C22.3741 1.27906 20.4042 1.31276 18.5891 1.93884C16.774 2.56494 15.209 3.7505 14.1233 5.32182L12.7819 12.211L14.3392 15.5104L22.3258 19.1154L30.3741 12.1193C30.4931 11.5413 30.5499 10.9525 30.5437 10.3627C30.545 8.45848 29.9308 6.60391 28.791 5.0707C27.6512 3.5375 26.0458 2.40623 24.2099 1.84265ZM10.1203 4.44072C9.18524 4.43215 8.27258 4.7246 7.51972 5.27414C6.76682 5.82363 6.2144 6.60051 5.94554 7.48782C5.67664 8.37518 5.70589 9.325 6.02881 10.1945L11.5022 11.4777L12.7049 5.32169C11.9624 4.75846 11.0554 4.44929 10.1203 4.44072Z" fill="white"/>
<path d="M51.003 25.2866L51.7277 25.2103L51.7739 26.6767C50.1504 26.9164 48.5125 27.0491 46.8707 27.0739C45.067 27.0739 43.7874 26.5545 43.0318 25.5158C42.2763 24.4771 41.9062 22.8579 41.9062 20.6735C41.9062 16.3048 43.6589 14.1204 47.1637 14.1204C48.8597 14.1204 50.1241 14.594 50.9568 15.5258C51.7891 16.4576 52.2055 17.9392 52.2055 19.9403L52.0978 21.3609H43.8027C43.8027 22.7357 44.0494 23.7591 44.5582 24.416C45.067 25.0728 45.9303 25.4089 47.1794 25.4089C48.4552 25.4363 49.7315 25.3955 51.003 25.2866ZM50.3246 19.8945C50.3246 18.3669 50.0779 17.2824 49.5843 16.6561C49.0912 16.0298 48.2894 15.709 47.1794 15.709C46.0694 15.709 45.2214 16.0451 44.6659 16.702C44.1109 17.3588 43.8179 18.4281 43.8027 19.8945H50.3246ZM54.8267 26.8447V8.97267H56.7075V26.8447H54.8267ZM68.5952 18.1531V24.2785C68.5952 24.9047 70.1526 25.027 70.1526 25.027L70.0597 26.6767C68.7339 26.6767 67.6391 26.7836 66.9764 26.1574C65.5535 26.7794 64.0139 27.0969 62.4587 27.0892C61.3024 27.0892 60.4235 26.7683 59.8222 26.1115C59.221 25.4547 58.9123 24.5382 58.9123 23.3161C58.9123 22.0941 59.221 21.2082 59.8375 20.643C60.4544 20.0778 61.4258 19.7112 62.7517 19.589L66.6987 19.2224V18.1531C66.6987 17.313 66.5138 16.702 66.1437 16.3353C65.7735 15.9687 65.2647 15.7855 64.6325 15.7855H59.6836V14.1357H64.5091C65.9278 14.1357 66.9607 14.4565 67.6086 15.1133C68.256 15.7702 68.5952 16.7783 68.5952 18.1531ZM60.8551 23.2245C60.8551 24.752 61.4873 25.5158 62.7669 25.5158C63.9117 25.5181 65.0485 25.327 66.1284 24.9506L66.6987 24.752V20.643L62.9827 20.9943C62.2276 21.0554 61.6878 21.2693 61.3486 21.6358C61.0094 22.0025 60.8551 22.5371 60.8551 23.2245ZM75.9495 15.8007C74.1301 15.8007 73.2054 16.427 73.2054 17.6948C73.2054 18.2753 73.4212 18.6877 73.8371 18.9322C74.2535 19.1765 75.2096 19.4209 76.7051 19.6806C78.2005 19.9403 79.2491 20.2916 79.866 20.7652C80.4825 21.2387 80.7907 22.0941 80.7907 23.3772C80.7907 24.6604 80.3748 25.5922 79.5421 26.1879C78.7093 26.7836 77.5069 27.0892 75.9033 27.0892C74.8704 27.0892 71.4013 26.7073 71.4013 26.7073L71.5094 25.0881C73.4979 25.2714 74.9476 25.4241 75.919 25.4241C76.8899 25.4241 77.6302 25.2714 78.139 24.9659C78.6479 24.6604 78.9099 24.141 78.9099 23.4231C78.9099 22.7051 78.6941 22.2163 78.2624 21.9567C77.8308 21.697 76.8747 21.4526 75.3945 21.2234C73.9143 20.9943 72.8662 20.6583 72.2493 20.2C71.6323 19.7417 71.3241 18.9169 71.3241 17.7101C71.3241 16.5033 71.7557 15.6021 72.6194 15.0217C73.4827 14.4412 74.5622 14.151 75.8418 14.151C76.8594 14.151 80.4053 14.4106 80.4053 14.4106V16.0451C78.5397 15.9382 77.0133 15.8007 75.9495 15.8007ZM89.8877 16.0146H85.8944V21.9719C85.8944 23.3925 86.0021 24.3396 86.2027 24.7825C86.4032 25.2256 86.912 25.4547 87.6981 25.4547L89.9339 25.3019L90.0573 26.8447C89.2122 26.9998 88.3566 27.0918 87.498 27.1197C86.1874 27.1197 85.2932 26.7989 84.7844 26.1726C84.2756 25.5463 84.0288 24.3396 84.0288 22.5676V16.0146H82.2404V14.3954H84.0288V10.5766H85.8944V14.3801H89.8877V16.0146ZM92.5088 11.5695V9.41564H94.3897V11.5848L92.5088 11.5695ZM92.5088 26.8447V14.3954H94.3897V26.8447H92.5088ZM102.561 14.1357C103.116 14.1357 104.057 14.2426 105.383 14.4412L105.984 14.5176L105.907 16.0298C104.925 15.9032 103.937 15.8267 102.947 15.8007C101.529 15.8007 100.557 16.1368 100.048 16.8089C99.5396 17.481 99.2771 18.7335 99.2771 20.5513C99.2771 22.3691 99.5086 23.6369 99.9865 24.3549C100.464 25.0728 101.451 25.4241 102.962 25.4241L105.922 25.195L106 26.7378C104.442 26.9669 103.271 27.0892 102.5 27.0892C100.542 27.0892 99.1847 26.5851 98.4448 25.5921C97.7045 24.5993 97.3191 22.919 97.3191 20.5513C97.3191 18.1836 97.7202 16.5186 98.522 15.5716C99.3238 14.6245 100.681 14.1357 102.561 14.1357Z" fill="white"/>
</g>
</g>
<defs>
<clipPath id="clip0_4659_12369">
<rect width="106" height="36" fill="white"/>
</clipPath>
</defs>
</svg>
