<svg width="116" height="34" viewBox="0 0 116 34" fill="none" xmlns="http://www.w3.org/2000/svg">
<g clip-path="url(#clip0_4659_12376)">
<path d="M38.2812 23.3653C37.5741 23.3653 37.4309 22.8317 37.4309 21.9108V12.6978C37.4309 9.56222 35.7024 7.6875 32.8047 7.6875C29.3432 7.6875 27.7719 10.4122 27.7488 13.1133V13.2267H30.0503V13.1133C30.0364 12.15 30.36 11.2528 30.933 10.6578C31.4044 10.1667 32.0098 9.91167 32.6846 9.91167C34.0664 9.91167 34.889 11.0167 34.889 12.8725V13.7319L32.1115 15.0778C28.9643 16.5842 26.8984 17.8072 26.8984 20.9806C26.8984 23.7667 28.6176 25.6414 31.1733 25.6414C32.6245 25.6414 34.0063 24.9094 35.0878 23.5731C35.4575 24.8906 36.4141 25.6414 37.7451 25.6414C38.2119 25.6414 38.711 25.5375 39.1824 25.3392L39.2471 25.3108V23.0442L39.09 23.1339C38.8635 23.2614 38.5862 23.3889 38.2812 23.3653ZM34.8937 16.0317V21.3867C34.2698 22.4256 33.0543 23.4644 31.7418 23.4644C30.3276 23.4644 29.4541 22.52 29.4541 21.0042C29.4541 18.8886 31.2658 17.76 32.8463 17.0139L34.8983 16.0317H34.8937Z" fill="white"/>
<path d="M51.2294 2.59277H48.6875L48.5997 8.03278H46.3906V10.3844H48.6921V21.68C48.6921 24.2158 49.8521 25.6136 51.9549 25.6136C52.7822 25.6136 53.5956 25.3775 54.4459 24.8911L54.5014 24.8581V22.5158L54.3258 22.6622C53.7804 23.1156 53.1611 23.3706 52.5788 23.3706C51.465 23.3706 51.2294 22.4214 51.2294 21.6281V10.3892H54.8619V8.0375H51.2294V2.5975V2.59277Z" fill="white"/>
<path d="M21.7007 21.2165C20.744 22.6379 19.6395 23.4171 18.595 23.4171C17.227 23.4171 16.7371 22.0429 16.7371 20.7585V8.03207H14.1953V20.8387C14.1953 23.8232 15.5263 25.5373 17.8463 25.5373C19.755 25.5373 21.0074 24.4748 21.7654 23.4832L21.8069 25.2162H24.2425V8.02734H21.7007V21.2118V21.2165Z" fill="white"/>
<path d="M8.68383 9.60022C8.05068 8.39605 6.87681 7.71605 5.40717 7.71605C3.93753 7.71605 2.69434 8.4291 1.74693 9.72772C0.586932 11.3144 0 13.6519 0 16.6694C0 23.271 2.60653 25.6227 5.05132 25.6227C6.43315 25.6227 7.63012 25.0419 8.39267 24.0172V33.6316H10.9345V8.03244H8.75777L8.68845 9.60022H8.68383ZM8.38805 12.0038V21.4388C7.6902 22.7327 6.83984 23.3372 5.71681 23.3372C3.63713 23.3372 2.58343 21.0941 2.58343 16.6647C2.58343 12.2352 3.77116 9.96855 5.83697 9.96855C6.97849 9.96855 7.98136 10.7666 8.39267 12.0038H8.38805Z" fill="white"/>
<path d="M43.8465 0H41.3047V25.3489H43.8465V0Z" fill="white"/>
<path d="M69.3856 8.03711H66.8438V25.226H69.3856V8.03711Z" fill="white"/>
<path d="M69.3856 2.59277H66.8438V5.55833H69.3856V2.59277Z" fill="white"/>
<path d="M89.9204 15.069L89.9065 15.0595C88.3213 14.2237 87.2029 13.5201 87.2029 12.0656C87.2029 10.8048 88.0764 9.95952 89.3797 9.95952C90.0775 9.95952 90.6644 10.2051 91.0758 10.6726C91.5841 11.244 91.8198 12.1317 91.7228 13.1092L91.7089 13.232H94.0474V13.1281C94.1306 11.5084 93.6684 10.0776 92.758 9.1048C91.9215 8.20757 90.7615 7.73535 89.4028 7.73535C86.6807 7.73535 84.7766 9.57702 84.7766 12.2167C84.7766 15.0926 87.0319 16.3251 88.6772 17.2223C90.3178 18.1337 91.866 18.9884 91.866 20.7829C91.866 22.294 90.7892 23.3895 89.3057 23.3895C87.6928 23.3895 86.5282 22.0012 86.482 20.0179V19.9092H84.125V20.0226C84.2036 23.5123 86.1862 25.6798 89.3057 25.6798C92.4252 25.6798 94.2923 23.6634 94.2923 20.6601C94.2923 17.4348 91.9723 16.1787 89.925 15.069H89.9204Z" fill="white"/>
<path d="M80.075 19.9092C80.0242 21.1323 79.696 22.1428 79.1414 22.7331C78.7486 23.1534 78.2449 23.3659 77.6533 23.3659C75.7261 23.3659 74.7048 21.0709 74.7048 16.7264C74.7048 12.382 75.7585 10.0209 77.6764 10.0209C78.2264 10.0209 78.6932 10.2192 79.0629 10.6112C79.5805 11.1589 79.8948 12.0939 79.9502 13.232H82.3211C82.2933 11.4328 81.8219 9.99255 80.93 9.0481C80.1443 8.21227 79.0814 7.79199 77.7689 7.79199C74.1733 7.79199 72.1953 10.9559 72.1953 16.7028C72.1953 22.4498 74.1132 25.6137 77.6025 25.6137C80.4077 25.6137 82.1639 23.4934 82.3858 19.9092H80.0704H80.075Z" fill="white"/>
<path d="M97.8322 23.9181C97.883 23.8237 97.9108 23.7103 97.9108 23.5828C97.9108 23.3987 97.8553 23.257 97.749 23.1531C97.6381 23.0492 97.481 22.9973 97.273 22.9973H96.3672V24.8531H96.8524V24.2345H97.2222L97.5503 24.8531H97.9709L97.5826 24.1306C97.6936 24.0834 97.7767 24.0125 97.8276 23.9181H97.8322ZM97.444 23.8142C97.3839 23.8473 97.3007 23.8662 97.1852 23.8662H96.8524V23.3703H97.1852C97.2961 23.3703 97.3839 23.3892 97.444 23.4317C97.5041 23.4695 97.5318 23.5403 97.5318 23.63C97.5318 23.7198 97.5041 23.7812 97.444 23.8142Z" fill="white"/>
<path d="M98.6042 23.257C98.521 23.0587 98.4101 22.8839 98.2622 22.7423C98.119 22.6006 97.948 22.4873 97.7539 22.407C97.5598 22.3267 97.3472 22.2889 97.1207 22.2889C96.8943 22.2889 96.6817 22.3314 96.4876 22.407C96.2935 22.4873 96.1225 22.6006 95.9746 22.7423C95.8313 22.8839 95.7158 23.0587 95.6326 23.257C95.5494 23.4553 95.5078 23.6773 95.5078 23.9228C95.5078 24.1684 95.5494 24.3903 95.6326 24.5934C95.7158 24.7964 95.8267 24.9712 95.9746 25.1175C96.1225 25.2639 96.2888 25.3773 96.4876 25.4575C96.6817 25.5378 96.8943 25.5756 97.1207 25.5756C97.3472 25.5756 97.5598 25.5378 97.7539 25.4575C97.948 25.3773 98.119 25.2639 98.2622 25.1175C98.4055 24.9712 98.521 24.7964 98.6042 24.5934C98.6874 24.3903 98.729 24.1684 98.729 23.9228C98.729 23.6773 98.6874 23.4553 98.6042 23.257ZM98.2946 24.4659C98.2299 24.6264 98.1375 24.7681 98.0265 24.8862C97.9156 25.0042 97.7816 25.0939 97.6245 25.16C97.4673 25.2214 97.3056 25.2545 97.13 25.2545C96.9543 25.2545 96.788 25.2214 96.6308 25.16C96.4737 25.0987 96.3397 25.0042 96.2288 24.8862C96.1132 24.7681 96.0254 24.6264 95.9607 24.4659C95.896 24.3053 95.8637 24.1259 95.8637 23.9275C95.8637 23.7292 95.896 23.5545 95.9607 23.3939C96.0254 23.2334 96.1179 23.0917 96.2288 22.9737C96.3397 22.8556 96.4737 22.7659 96.6308 22.6998C96.7833 22.6384 96.9497 22.6053 97.13 22.6053C97.3102 22.6053 97.4673 22.6384 97.6245 22.6998C97.777 22.7612 97.911 22.8556 98.0265 22.9737C98.1421 23.0917 98.2299 23.2334 98.2946 23.3939C98.3593 23.5545 98.3916 23.7339 98.3916 23.9275C98.3916 24.1212 98.3593 24.3053 98.2946 24.4659Z" fill="white"/>
<path d="M112.6 2.46973L110.414 10.3842H110.386L108.039 2.46973H102.904L101.125 5.69974L99.244 2.46973H96.6051L99.6738 7.5414L96.3047 13.227H98.8049L100.954 9.48696L103.177 13.227H107.138V5.80835H107.165C107.221 6.12001 107.272 6.38446 107.322 6.6064C107.369 6.82835 107.419 7.0314 107.466 7.22029C107.512 7.40918 107.563 7.58862 107.614 7.75863C107.664 7.92863 107.72 8.11279 107.775 8.31585L109.328 13.227H111.422L112.956 8.31585C113.067 7.91918 113.173 7.5414 113.27 7.17307C113.367 6.80474 113.451 6.3939 113.524 5.93113H113.552V13.227H115.729V2.46973H112.596H112.6ZM102.229 7.53668L104.965 2.89945V12.0795L102.229 7.53196V7.53668Z" fill="white"/>
<path d="M59.8416 10.0724L59.7122 8.03712H57.2812V25.3488H59.8231V12.8963C59.8231 12.8963 60.8537 10.063 63.8715 10.2046C64.1396 10.2188 64.2551 10.2377 64.4215 10.2518V7.66406H63.7837C61.9906 7.73962 61.0062 8.31101 59.8416 10.0724Z" fill="white"/>
</g>
<defs>
<clipPath id="clip0_4659_12376">
<rect width="116" height="34" fill="white"/>
</clipPath>
</defs>
</svg>
