<svg width="51" height="38" viewBox="0 0 51 38" fill="none" xmlns="http://www.w3.org/2000/svg">
<g clip-path="url(#clip0_4659_12303)">
<path d="M38.5439 0.0703125C38.8722 0.164683 47.6158 6.90789 48.1646 7.46783C48.1494 7.90368 47.1879 10.811 47.0192 11.3533C46.6645 12.5304 46.2964 13.7029 45.9157 14.8709C45.8083 15.1949 45.7244 15.5228 45.605 15.8389C45.9453 16.7648 46.3376 18.1494 46.6409 19.1325L48.7334 25.8628C49.0239 26.7913 49.3184 27.8863 49.6379 28.7986C48.9761 28.8431 48.2769 28.819 47.6098 28.8181L44.342 28.8164C41.9245 28.8156 39.2635 28.8762 36.8713 28.8097C37.2552 27.8129 37.5711 26.6821 37.9054 25.647C37.0101 24.9388 36.0471 24.2396 35.1375 23.5433L29.265 19.0613C28.2779 18.316 27.2885 17.5609 26.3195 16.79C25.9704 16.5123 25.5993 16.2184 25.2339 15.9661C24.8659 16.3567 23.4792 17.3871 23.0086 17.7484C21.0374 19.2617 19.0576 20.7662 17.0853 22.2802L15.5261 23.4829C15.2884 23.6646 15.0583 23.8052 14.8288 24.0045C14.5094 24.2557 12.8005 25.5016 12.672 25.6695C12.7249 26.0476 12.9063 26.3465 12.9814 26.6806C13.1331 27.3564 13.5114 28.162 13.6216 28.817C12.2767 28.8432 10.8536 28.8172 9.503 28.8169L0.929688 28.8192C0.955519 28.6489 1.10657 28.2023 1.16239 28.0187C1.35871 27.3687 1.56149 26.721 1.77069 26.0755L3.74007 19.6694C4.07506 18.5717 4.44604 17.4676 4.75038 16.3611C4.79814 16.1875 4.87454 15.7264 4.83988 15.5657C4.71587 14.9909 4.47443 14.3671 4.30332 13.7988L3.14274 10.0279C2.87785 9.1812 2.57861 8.29292 2.36723 7.4338C2.97184 6.84818 3.56946 6.42476 4.22978 5.92141L6.532 4.15378C7.78686 3.19058 9.02998 2.21934 10.2968 1.27236C10.7077 0.965212 11.1043 0.62549 11.5271 0.337729C11.6595 0.247611 11.858 0.117159 12.0138 0.0933953C12.2357 0.0595497 18.1155 4.68333 18.8172 5.20842C20.4663 5.24438 22.1779 5.22152 23.8329 5.22138L31.6971 5.20757C31.9733 5.06745 32.3024 4.70641 32.5792 4.50294C33.553 3.78732 34.5049 3.0282 35.4783 2.31079C36.2172 1.76602 36.866 1.12544 37.6673 0.654781C37.9688 0.477765 38.2185 0.247987 38.5439 0.0703125Z" fill="white"/>
<path d="M21.4422 24.3886L26.5953 24.3918C27.1326 24.3914 28.6021 24.3476 29.0614 24.4371C29.2464 24.6078 30.3979 28.3365 30.5159 28.8026L29.1457 28.8003L20.1094 28.8011C20.1252 28.637 21.3701 24.5083 21.4422 24.3886Z" fill="white"/>
<path d="M29.9024 32.2803C30.583 32.4407 31.6191 32.2727 32.3962 32.3653C33.7518 32.5266 34.0311 34.221 33.0251 34.9923C33.7495 35.603 33.922 36.3563 33.513 37.2494C32.9632 38.2283 31.4058 37.7986 30.4997 37.8758C30.4055 37.8836 29.9813 37.911 29.9329 37.8839C29.8196 37.6334 29.8971 35.0671 29.8806 34.6092C29.8685 34.2696 29.8497 32.4934 29.9024 32.2803ZM30.7744 37.1176C31.3675 37.1076 32.0816 37.2134 32.5669 36.9234C32.9363 36.4645 32.8835 35.625 32.2526 35.4861C31.8113 35.3889 31.2592 35.5306 30.7994 35.4537C30.7679 35.9525 30.8163 36.5263 30.7744 37.1176ZM30.7718 34.7018C31.3062 34.6969 32.0095 34.8018 32.4525 34.4762C32.6982 34.216 32.7143 33.5071 32.4766 33.2893C32.1191 32.9617 31.26 33.1255 30.7748 33.0929C30.8464 33.5669 30.8146 34.2191 30.7718 34.7018Z" fill="white"/>
<path d="M9.59916 32.3296C10.0287 32.2802 10.6224 32.2838 11.0673 32.2756C11.055 33.473 11.0497 34.6705 11.0515 35.8681C11.0525 36.2714 11.0913 37.44 11.0458 37.7851C10.9095 37.9677 10.2988 37.9339 10.145 37.8323C10.0149 37.5569 10.0788 34.0998 10.1017 33.5814C10.0948 33.4166 10.0905 33.2426 10.08 33.079C10.0255 33.2744 9.95348 33.5118 9.90879 33.7062C9.7698 33.987 9.71257 34.3724 9.63107 34.6793C9.51163 35.129 8.90051 37.4408 8.74473 37.5859C8.57553 37.7432 8.05856 37.6656 7.84304 37.6411C7.52359 36.9703 6.6345 33.2935 6.46625 33.1203C6.42029 33.2844 6.46241 33.5915 6.4597 33.7935C6.4447 34.5138 6.44526 35.2343 6.46143 35.9546C6.47094 36.4251 6.52141 37.3903 6.45604 37.7951C6.31966 37.918 5.79494 37.8753 5.57329 37.8786C5.56301 37.7903 5.5553 37.7016 5.55019 37.6129C5.53325 37.3261 5.5262 36.3061 5.54374 36.0707C5.58273 35.5478 5.45647 32.4972 5.60848 32.3154C5.81928 32.2765 6.85442 32.2494 7.02545 32.3373C7.30543 32.4812 8.16119 36.1712 8.34515 36.7081C8.47571 35.9423 8.71596 35.117 8.92936 34.3687C9.0799 33.8408 9.26674 32.6913 9.59916 32.3296Z" fill="white"/>
<path d="M19.103 32.2755C20.0929 32.3082 21.7705 32.0544 22.5161 32.8294C22.8987 33.2271 22.9453 33.8528 22.9381 34.3905C22.9267 35.2386 22.6341 35.5757 22.0857 36.1209C22.2222 36.321 22.8839 37.6371 22.8344 37.8278C22.6427 37.9707 22.2569 37.9061 22.0145 37.8901C21.7449 37.558 21.3968 36.7009 21.1735 36.251C20.7854 36.2754 20.3559 36.2693 19.9642 36.272C20.0118 36.7586 20.0026 37.4226 19.9966 37.9206C19.6723 37.8901 19.4324 37.8779 19.1069 37.8764C19.0698 37.4734 19.0836 36.9108 19.0838 36.4947L19.0854 34.2876C19.0854 33.8877 19.0417 32.5825 19.103 32.2755ZM19.9266 35.4442C20.2297 35.4363 20.5244 35.4417 20.8268 35.4412C21.1635 35.4406 21.5157 35.4731 21.7239 35.1542C22.1814 34.6075 22.1712 33.3529 21.3859 33.1374C21.0155 33.0358 20.3638 33.1168 19.9478 33.0973C19.9926 33.5123 19.996 35.028 19.9266 35.4442Z" fill="white"/>
<path d="M43.1734 32.3051C43.4791 32.2864 43.9184 32.1724 44.0328 32.5491C44.2054 33.1179 44.2801 33.7221 44.4329 34.294C44.6397 35.0683 44.8334 35.8337 44.9852 36.6231C45.0401 36.8973 45.3409 37.6152 45.2356 37.8582C45.0863 37.948 44.5713 37.8868 44.3847 37.8735C44.247 37.5959 44.0187 36.5898 43.9888 36.2688C43.7074 36.2864 43.3214 36.2726 43.0325 36.271C42.7395 36.2753 42.4465 36.2732 42.1534 36.2648C42.1055 36.6638 41.9763 37.5161 41.7241 37.8312C41.6226 37.9577 41.0151 37.9377 40.9062 37.7959C40.9376 37.4879 42.1045 32.5918 42.2179 32.4124C42.4433 32.2585 42.891 32.3021 43.1734 32.3051ZM42.3281 35.4374C42.5835 35.434 42.8737 35.4369 43.1255 35.418C43.3474 35.4145 43.5753 35.4068 43.7965 35.4176C43.7024 35.0502 43.3534 33.1946 43.196 33.0628L43.0586 33.018C42.7716 33.3141 42.5574 34.8367 42.3281 35.4374Z" fill="white"/>
<path d="M14.2854 32.2979C14.817 32.3079 15.3612 32.2982 15.895 32.3005C15.9963 32.6053 16.0304 32.8805 16.1136 33.1735C16.3353 33.9543 16.4849 34.7802 16.6678 35.5672C16.7415 35.8846 17.2244 37.5525 17.1953 37.7807C17.0307 37.9763 16.566 37.9451 16.3588 37.8445C16.201 37.6668 15.9611 36.5934 15.9289 36.321L15.8755 36.2774C15.4358 36.2861 14.4979 36.3044 14.0911 36.2491C14.0694 36.5497 13.9249 37.7688 13.589 37.8924C13.4979 37.9258 13.0114 37.8961 12.9146 37.8397C12.7946 37.5851 14.0096 33.0701 14.0864 32.4665C14.0915 32.4267 14.2347 32.3309 14.2854 32.2979ZM14.2761 35.4455C14.4784 35.4413 14.7839 35.4436 14.9772 35.4227C15.2548 35.4165 15.5075 35.4067 15.7847 35.4324C15.583 34.7041 15.4364 33.9543 15.2409 33.2252C15.2135 33.1231 15.1234 33.0501 15.032 33.0124C14.7434 33.3475 14.5344 34.8428 14.2761 35.4455Z" fill="white"/>
<path d="M35.7963 32.2627C36.4771 32.3555 37.439 32.3034 38.1363 32.3112C38.4576 32.3148 38.8158 32.2731 39.1324 32.3125C39.2831 32.4764 39.2564 32.8783 39.2624 33.1119C38.4157 33.1156 37.5693 33.1134 36.7229 33.1054C36.7684 33.5463 36.762 34.2592 36.7074 34.7008C37.2847 34.6594 38.1046 34.6812 38.7267 34.6561L38.7548 35.4935C38.7052 35.4907 38.6555 35.4887 38.6062 35.4876C38.3561 35.4827 36.8272 35.4332 36.7317 35.5306L36.7412 35.6901C36.7617 36.1381 36.7539 36.676 36.7088 37.1212C37.0315 37.1072 38.9006 37.0905 39.1384 37.1468C39.2676 37.2826 39.2631 37.6815 39.2 37.8441C39.0503 37.9394 36.3225 37.8099 35.8332 37.9023L35.8185 37.9049C35.76 37.4147 35.7892 36.088 35.7938 35.5099C35.8019 34.4586 35.76 33.2939 35.7963 32.2627Z" fill="white"/>
<path d="M24.2861 32.2695C24.7218 32.3335 25.4019 32.314 25.8497 32.3162C26.6192 32.3201 27.4185 32.3221 28.1851 32.2712L28.1826 33.1369C27.6801 33.1423 27.1955 33.1506 26.6934 33.1262C26.7848 33.8622 26.7378 35.6431 26.7365 36.474C26.7351 36.7971 26.8167 37.5492 26.6698 37.8424C26.6073 37.9671 25.9722 37.917 25.8561 37.8109C25.7401 37.4546 25.7809 33.7283 25.7915 33.1455C25.4907 33.1391 25.1337 33.134 24.8339 33.1695C24.1656 33.2486 24.1515 32.8404 24.2861 32.2695Z" fill="white"/>
<path d="M10.0775 33.0791C10.088 33.2428 10.0923 33.4168 10.0992 33.5815L10.0432 33.5612C10.0317 33.6818 10.0312 33.7756 10.0307 33.8961L9.9936 33.913C9.86987 33.785 9.99103 33.826 9.90625 33.7063C9.95095 33.5119 10.023 33.2746 10.0775 33.0791Z" fill="white"/>
<path d="M47.1928 32.2343C48.123 32.4132 49.3762 32.0828 50.2211 32.5419C50.7343 32.8208 50.8703 33.4742 51.002 34.0019V34.4194C50.9558 34.5294 50.9291 34.7267 50.903 34.8511C50.7642 35.5169 50.5885 35.6982 50.1098 36.1012C50.2616 36.4017 50.9139 37.5849 50.8784 37.8465C50.7868 37.9196 50.3976 37.904 50.2831 37.8992C49.5953 37.8703 49.6298 36.5056 49.1849 36.2851C49.0905 36.2382 48.2438 36.272 48.0156 36.2479C48.0709 36.6027 48.0459 37.5047 48.0427 37.887C47.7641 37.8647 47.4873 37.8662 47.2108 37.9078C47.1735 37.2468 47.1921 36.4426 47.1925 35.772L47.1928 32.2343ZM48.0357 35.4341C48.52 35.4401 49.4491 35.5721 49.7699 35.1569C49.8562 35.0431 49.9707 34.9008 50.0475 34.7838C50.1535 32.8136 49.5459 33.1436 48.0434 33.101C48.0452 33.8329 48.0677 34.7119 48.0357 35.4341Z" fill="white"/>
<path d="M0 33.36L0.00977404 33.3383C0.131948 33.0613 0.158364 32.7724 0.405436 32.5727C1.21116 31.9213 2.56119 32.1811 3.48285 32.3903C3.48213 32.625 3.48648 32.8756 3.47004 33.1086C2.81259 33.0987 2.16824 33.0334 1.51091 33.0718C1.08675 33.0966 0.856895 33.3269 0.872477 33.7911C0.877971 33.9431 0.941172 34.0864 1.04789 34.1888C1.66127 34.7781 3.55898 34.5653 3.62044 36.0185C3.66172 36.9951 3.21834 37.8979 2.18745 37.9164C1.49855 37.9287 0.803099 37.8671 0.115081 37.8248C0.0839795 37.4837 0.0677807 37.3899 0.166595 37.0557C0.778454 37.1149 1.44234 37.2292 1.99375 37.1676C2.5536 37.1048 2.9352 36.2267 2.56931 35.8594C2.06009 35.3481 0.876816 35.4012 0.363551 34.8156C0.0982676 34.5311 0.123942 34.3608 0 34.1738V33.36Z" fill="white"/>
</g>
<defs>
<clipPath id="clip0_4659_12303">
<rect width="51" height="38" fill="white"/>
</clipPath>
</defs>
</svg>
