<svg width="87" height="40" viewBox="0 0 87 40" fill="none" xmlns="http://www.w3.org/2000/svg">
<g clip-path="url(#clip0_4659_12328)">
<path d="M52.1973 7.54622C52.8528 7.50721 53.8795 7.48983 54.5354 7.57255C56.015 7.75923 57.9679 8.66189 59.0821 9.68671C59.3731 9.95413 59.7788 10.4902 60.0328 10.8149C60.0286 10.4274 59.913 7.99759 60.2074 7.95754C61.3807 7.79767 62.9037 7.94405 64.0935 7.84567C64.1386 9.2737 64.1105 10.8102 64.1097 12.2481L64.1076 19.8443L64.1101 24.9351C64.1122 25.7636 64.1585 26.9193 64.1037 27.7059C63.0111 27.784 61.1993 27.723 60.0545 27.721C59.9993 27.2183 59.987 25.2156 60.0256 24.7367C59.7325 25.0985 59.5035 25.3643 59.1832 25.7012C58.2588 26.8654 56.0562 27.6903 54.6161 27.9197C52.3545 28.28 49.8239 27.7467 47.9548 26.3866C45.9501 24.8781 44.4412 22.2662 44.0742 19.7659C43.2055 13.8452 46.0712 8.4753 52.1973 7.54622ZM54.8519 24.4304C62.252 23.096 61.6496 10.5369 53.2491 11.1695C51.2602 11.6216 50.1808 12.232 49.0567 14.0283C48.0835 15.5839 47.9637 17.8529 48.3312 19.6097C48.948 22.5564 51.849 24.9209 54.8519 24.4304Z" fill="white"/>
<path d="M33.4573 7.54133C35.9706 7.33143 38.5221 8.04399 40.3494 9.92304C40.576 10.1561 40.7515 10.4448 40.9351 10.7132C42.4393 12.9118 42.4326 15.4213 42.4321 17.9872L42.4315 21.3899C42.4312 23.3738 42.4953 25.7329 42.4331 27.6873C42.0704 27.7456 41.3265 27.726 40.9427 27.7258L38.3916 27.7189C38.3129 27.0881 38.3579 25.3443 38.3585 24.6327L38.3618 18.4922C38.362 17.2177 38.4232 15.6161 38.0448 14.4154C37.7299 13.4161 36.9108 12.1371 35.9487 11.6711C34.5637 11.0004 32.9184 10.9815 31.4836 11.4616C30.3817 11.7285 29.1575 13.1635 28.8298 14.2171C28.4052 15.5821 28.5046 17.3563 28.5045 18.7991L28.5086 24.6802C28.5102 25.5572 28.5635 26.8842 28.5026 27.7053C27.5035 27.7849 25.5102 27.7234 24.4299 27.7225C24.339 26.5348 24.3884 24.7619 24.3887 23.5376L24.3899 16.1367L24.3882 11.0209C24.3882 10.3194 24.3519 8.5444 24.4845 7.94847C24.791 7.82803 27.7883 7.93467 28.4884 7.82414C28.541 8.40325 28.5083 9.47534 28.4475 10.0463C28.6537 9.86034 28.8399 9.65255 29.0515 9.46751C30.2253 8.44122 31.9274 7.72546 33.4573 7.54133Z" fill="white"/>
<path d="M13.2771 7.54444C15.408 7.44896 16.7744 7.50608 18.7535 8.50089C20.282 9.26928 21.3253 10.6139 21.7922 12.273C21.9347 12.7794 21.9586 13.3619 22.1263 13.9111C20.7728 13.8665 19.3472 13.9541 17.9764 13.9005C17.3193 11.3432 16.1039 10.9328 13.5694 11.0599C12.3223 11.1224 10.7377 12.0178 11.0079 13.476C11.4048 15.6176 14.9842 15.8732 16.6438 16.5043C19.2956 17.4688 21.8788 18.3438 22.2464 21.612C22.4849 23.7329 21.538 25.6294 19.7542 26.7471C18.2027 27.7193 16.9644 27.8471 15.2163 28.0522C11.7965 28.1523 7.41906 26.5474 6.6584 22.4956C6.62042 22.2935 6.56027 21.8506 6.68091 21.6827C6.70993 21.6789 6.73899 21.6754 6.76808 21.6723C7.94059 21.5428 9.47893 21.667 10.6721 21.6844C10.758 21.795 10.9632 22.3567 10.9923 22.4478C11.162 22.9793 11.6059 23.4003 12.029 23.7511C13.2937 24.8644 16.6297 24.9392 17.706 23.5474C19.6697 21.008 16.4631 20.1639 14.7491 19.6408C12.7124 19.0193 10.4595 18.465 8.73089 17.258C7.78035 16.5943 7.0036 15.0394 6.91417 13.893C6.56027 9.94686 9.87727 7.94837 13.2771 7.54444Z" fill="white"/>
<path d="M34.0088 32.9193C34.2616 32.8881 34.5173 32.8889 34.7699 32.9217C35.5423 33.0251 36.0071 33.2692 36.473 33.8915C36.4496 33.5545 36.4541 33.347 36.4697 33.0082C37.1041 32.9448 37.8753 33.014 38.5673 32.9557C38.6002 34.5127 38.5241 36.1634 38.5634 37.7295C38.5789 38.347 38.5335 39.2204 38.602 39.8163C38.1425 39.7805 36.8408 39.8304 36.4967 39.7558C36.4178 39.6356 36.4388 39.4637 36.4411 39.3145L36.4544 38.7997C35.9983 39.4182 35.7206 39.6729 34.9441 39.8259C34.2346 39.9483 33.4576 39.8552 32.853 39.4222C31.214 38.2484 31.0815 35.5883 32.1053 33.9727C32.5631 33.2502 33.2109 33.0533 34.0088 32.9193ZM35.1674 38.0035C35.4557 37.9329 35.6841 37.8795 35.9197 37.6777C36.7834 36.9377 36.6099 35.1561 35.4585 34.794C35.2152 34.7175 35.0806 34.6633 34.8187 34.6937C34.3229 34.8791 33.8871 35.1387 33.6962 35.6589C33.2558 36.8593 33.854 38.0456 35.1674 38.0035Z" fill="white"/>
<path d="M60.4668 32.9205C63.1668 32.6968 64.2781 34.2736 64.2157 36.8532C62.6757 36.7755 60.9808 36.8982 59.5156 36.8189C59.6099 37.259 59.6511 37.5064 59.9961 37.8411C60.3673 38.2014 60.9404 38.2748 61.3737 37.9938C61.6057 37.8434 61.7509 37.5622 62.0942 37.5323C62.7042 37.4792 63.3087 37.5357 63.931 37.5003C63.9812 37.5109 63.9646 37.5119 64.0126 37.5561C64.0262 37.8783 63.7029 38.3894 63.5143 38.6417C62.9476 39.3959 62.3656 39.6952 61.4646 39.8397C58.1142 40.3767 56.3428 36.6435 58.2127 34.0113C58.4001 33.7477 58.6231 33.5778 58.8882 33.3967C59.3912 33.0531 59.8852 32.9958 60.4668 32.9205ZM59.5203 35.6905C59.9561 35.6824 60.3924 35.6835 60.8283 35.6936C61.0836 35.6935 61.8032 35.711 62.0147 35.6574C62.2412 35.3075 61.6554 34.8566 61.4039 34.6602C61.2284 34.5234 60.9893 34.5165 60.7735 34.5215C60.0747 34.6244 59.7527 35.0706 59.5203 35.6905Z" fill="white"/>
<path d="M44.8003 32.9242C46.1996 32.8711 47.3954 33.7242 47.508 35.1681C47.6256 36.682 47.5262 38.2841 47.5793 39.8093C46.8618 39.7946 46.1439 39.7848 45.426 39.7799C45.4434 38.9563 45.4519 38.1325 45.4515 37.3087C45.4579 36.3567 45.6516 34.8934 44.4281 34.6501C43.9362 34.5523 43.6609 34.7512 43.2871 35.0246C42.7973 35.7224 42.9536 36.7926 42.9451 37.6209C42.9379 38.3283 42.9413 39.1109 42.9766 39.817C42.2581 39.7909 41.5392 39.7782 40.8203 39.7792C40.8885 37.6755 40.8687 35.0984 40.8414 32.9706C41.4493 33.0113 42.3286 32.9848 42.957 32.9819C42.9583 33.282 42.9366 33.515 42.9086 33.8146C43.5165 33.1473 43.9375 33.0087 44.8003 32.9242Z" fill="white"/>
<path d="M26.8786 32.9243C29.3226 32.8417 29.7394 34.8707 29.6182 36.8359C29.5726 37.5759 29.5764 39.0772 29.6571 39.8129C28.9552 39.7814 28.2106 39.7874 27.5051 39.7819L27.5091 39.656C27.5455 38.3953 27.5602 36.9391 27.477 35.6797C27.4378 35.0879 26.7896 34.6505 26.2533 34.6275C25.8969 34.6121 25.6001 34.8199 25.347 35.0647C24.9229 35.6635 24.9876 36.5527 25.0082 37.2726C25.0303 38.0496 24.9615 39.056 25.0588 39.8102C24.3421 39.791 23.6252 39.7825 22.9082 39.7848C22.9179 37.542 22.8832 35.2236 22.9388 32.9913C23.602 32.9659 24.3499 32.9881 25.0277 32.9801C25.0268 33.3107 25.0118 33.493 24.97 33.8216C25.6527 33.1371 25.9249 33.0059 26.8786 32.9243Z" fill="white"/>
<path d="M52.2578 32.921C53.3967 32.776 54.5929 33.0679 55.3329 33.9942C55.7391 34.5024 55.841 34.8581 56.0492 35.4554C55.4374 35.4019 54.4396 35.4277 53.7837 35.415C53.2905 34.6222 52.4795 34.283 51.8432 35.1709C51.3699 35.8313 51.3767 37.4009 52.0989 37.8787C52.4834 38.1332 52.8763 38.0452 53.296 37.9556C53.4222 37.8342 53.6881 37.4925 53.8372 37.3279C54.2612 37.3102 54.7786 37.3235 55.2093 37.3243C55.4634 37.3269 55.7391 37.3161 55.9948 37.3109C55.9086 37.8142 55.8402 37.9519 55.5704 38.3895C54.5556 40.0353 52.2659 40.3241 50.7094 39.2809C49.1474 38.2341 49.0233 35.5006 50.0713 34.0162C50.6325 33.2217 51.3423 33.0628 52.2578 32.921Z" fill="white"/>
<path d="M15.6891 30.2006C16.0497 30.1839 16.3384 30.18 16.6991 30.19C16.7796 30.6529 16.759 31.4634 16.7083 31.9362C16.3831 32.0145 16.0983 32.0411 15.7361 32.1391C15.5875 32.4708 15.5912 32.6252 15.567 32.9839C15.9198 32.9682 16.3758 32.9774 16.7358 32.9751C16.7824 33.4335 16.7633 34.2132 16.7431 34.6809C16.4125 34.699 15.9177 34.6836 15.5751 34.6832C15.604 35.1547 15.5851 35.809 15.5848 36.2915C15.5777 37.4668 15.5803 38.642 15.5927 39.8173L15.0136 39.7938L13.4742 39.7752C13.5343 38.206 13.4924 36.3155 13.4782 34.728C13.3419 34.7214 12.8542 34.7063 12.818 34.6212C12.7095 34.3655 12.7249 33.1766 12.9073 33.0022C13.0875 32.9356 13.2917 32.9583 13.4855 32.9647C13.3714 31.3233 14.2449 30.5793 15.6891 30.2006Z" fill="white"/>
<path d="M20.4526 32.9712C20.5525 32.9482 20.5105 32.9443 20.6096 32.9966C20.7149 33.2796 20.615 38.9208 20.6603 39.8182C20.0609 39.774 19.2995 39.7869 18.6876 39.7811C18.5692 39.7746 18.6119 39.7933 18.5265 39.712C18.4848 39.5273 18.5047 38.1404 18.5049 37.8864C18.5022 36.2553 18.5093 34.6242 18.5261 32.9932C19.1355 32.9622 19.8174 32.9931 20.4526 32.9712Z" fill="white"/>
<path d="M11.6666 0.229492C12.2287 0.31771 12.8021 0.629584 12.8077 1.28215C12.8191 2.6028 12.578 4.3596 12.0424 5.56168C11.8956 5.89102 11.3594 6.00284 11.0529 6.04397C10.8041 6.03787 10.5502 5.94702 10.3547 5.79043C10.1053 5.5906 9.92578 5.25128 9.89417 4.92998C9.84065 4.38537 10.406 1.05469 10.7157 0.666674C10.9596 0.361056 11.3004 0.27266 11.6666 0.229492Z" fill="white"/>
<path d="M3.43622 0.0907791C3.68654 0.0767558 3.95265 0.0785547 4.1773 0.207905C4.6854 0.500467 6.02396 2.41607 6.17426 3.00049C6.25293 3.30628 6.22515 3.66646 6.05935 3.93867C5.8704 4.24888 5.53646 4.4001 5.20269 4.48317C3.93413 4.58046 3.67 3.24476 2.9866 2.46714C2.236 1.61306 2.11543 0.410904 3.43622 0.0907791Z" fill="white"/>
<path d="M3.49174 11.9151C4.40544 11.7589 5.36282 12.565 4.99613 13.4727C4.76759 14.0384 3.18632 14.7897 2.59643 15.0033C1.62153 15.2448 0.819695 14.2227 1.18283 13.3453C1.46115 12.6728 2.85007 12.1709 3.49174 11.9151Z" fill="white"/>
<path d="M6.93729 4.85697C7.6476 4.71055 8.34042 5.17667 8.48651 5.89931C8.63256 6.6219 8.17687 7.32862 7.46744 7.47963C6.75488 7.63128 6.0568 7.16486 5.91007 6.43898C5.76334 5.71314 6.22374 5.00404 6.93729 4.85697Z" fill="white"/>
<path d="M19.0381 30.0261C19.4163 29.9948 19.7368 29.9526 20.0991 30.1066C20.3981 30.2355 20.6337 30.4815 20.7526 30.7891C21.0162 31.4656 20.5796 31.9424 19.9896 32.1735C19.3848 32.3241 18.7423 32.2268 18.4363 31.6028C18.3094 31.3381 18.2935 31.0324 18.392 30.7555C18.4887 30.4771 18.7707 30.1533 19.0381 30.0261Z" fill="white"/>
<path d="M71.3088 10.7925C72.3526 9.42175 72.9575 9.00445 74.5199 8.28601C76.6299 7.31425 79.033 7.23585 81.2 8.0681C84.0746 9.17838 85.4442 10.7469 86.6617 13.5715C86.7913 13.8715 86.8783 14.1756 87.0011 14.4531V20.9173C86.8962 21.1811 86.8439 21.4861 86.708 21.8056C85.8711 23.7678 84.8911 25.3828 83.0874 26.5648C81.0262 27.9156 78.5373 28.3337 76.1537 27.8197C74.3937 27.4401 72.3075 26.351 71.2978 24.8022C71.3619 25.3057 71.3398 26.1368 71.3398 26.6685L71.339 29.7097L71.3407 34.4172C71.3419 35.3011 71.3666 36.3147 71.3296 37.1908C70.9422 37.2474 70.4163 37.2113 70.014 37.215C69.096 37.2235 68.1708 37.1987 67.2532 37.2165C67.195 35.3336 67.2281 33.3584 67.2281 31.4665L67.2286 21.8449V13.1907C67.2281 11.4621 67.1933 9.64527 67.2592 7.9267C68.4486 7.78002 70.1066 7.99654 71.319 7.83273C71.3691 8.76467 71.3356 9.85435 71.3088 10.7925ZM77.1775 24.4798C79.0237 24.4092 80.0832 23.9369 81.3992 22.576C82.7565 21.1725 83.2526 19.4014 83.1728 17.4402C83.0878 15.3534 82.5241 13.9084 80.9999 12.4964C80.0526 11.6193 78.728 11.1753 77.443 11.1273C77.4201 11.1264 77.4094 11.1302 77.3861 11.1347C73.4277 11.2343 71.212 14.151 71.3568 18.0608C71.4214 19.8012 71.8649 21.4921 73.152 22.7237C74.3449 23.8582 75.5161 24.4355 77.1775 24.4798Z" fill="white"/>
<path d="M0 6.78761C0.292974 6.56201 0.607037 6.42692 0.979413 6.48206C1.73678 6.59419 5.37866 8.02204 5.76379 8.57996C5.92641 8.81555 5.97806 9.1141 5.92679 9.39479C5.86434 9.73693 5.61783 10.1677 5.3245 10.36C5.07149 10.5259 4.73823 10.4997 4.45913 10.4312C3.93136 10.3017 3.45844 10.0014 2.95758 9.79535C2.25713 9.50727 0.528584 8.95155 0 8.5666V6.78761Z" fill="white"/>
</g>
<defs>
<clipPath id="clip0_4659_12328">
<rect width="87" height="40" fill="white"/>
</clipPath>
</defs>
</svg>
