<svg width="133" height="26" viewBox="0 0 133 26" fill="none" xmlns="http://www.w3.org/2000/svg">
<g clip-path="url(#clip0_4659_12347)">
<path d="M77.1524 9.77621C77.6024 9.73102 78.2304 9.83692 78.6662 9.97196C78.9396 10.0568 79.3364 10.3913 79.4838 10.3775C79.4883 10.2213 79.4831 10.1239 79.5383 9.97576C79.8221 9.89547 80.7787 9.96673 81.1242 9.98166L81.1281 15.7503C81.1281 16.761 81.1554 17.7697 81.1008 18.785C80.9482 21.6246 77.5914 22.5025 75.4834 21.1462C75.0976 20.8981 74.1891 19.7892 74.4151 19.3172C74.7742 19.1579 75.4314 18.976 75.8263 18.8546C76.399 20.1751 77.8648 20.5789 79.0162 19.5903C79.5623 19.1214 79.4948 18.2687 79.4838 17.5923C77.0264 19.1842 74.2521 17.7348 74.1943 14.7197C74.1475 12.2852 74.2638 10.2357 77.1524 9.77621ZM78.3447 16.5976C78.7058 16.4217 79.3435 16.0549 79.389 15.6011C79.5227 14.2573 79.9968 11.4806 77.9213 11.5151C77.6297 11.5195 77.3394 11.5208 77.0478 11.5303C75.6399 11.9837 75.8977 13.0681 75.8548 14.2322C75.7769 16.3445 76.4185 16.7007 78.3447 16.5976Z" fill="white"/>
<path d="M110.594 9.84543C113.306 9.65125 114.336 11.9311 114.116 14.2007C113.985 15.5491 114.442 16.209 113.505 17.5038C113.007 18.1978 112.255 18.6628 111.415 18.7959C110.447 18.9446 109.621 18.7178 108.84 18.1415L108.841 19.4803C108.847 20.2073 108.844 20.9343 108.834 21.6612C108.294 21.6359 107.753 21.6338 107.213 21.6549C107.152 20.1275 107.193 18.3499 107.193 16.8073C107.184 14.5333 107.189 12.2592 107.208 9.98526C107.615 10.0103 108.507 9.94079 108.798 10.0183C108.843 10.1865 108.844 10.2478 108.851 10.4188C109.041 10.4117 109.621 10.0508 109.863 9.97648C110.144 9.89003 110.301 9.87556 110.594 9.84543ZM111.353 17.1192C112.671 16.6415 112.509 15.2356 112.502 14.0957C112.487 11.8152 112.118 11.4577 109.956 11.533C109.479 11.7256 108.837 12.2345 108.854 12.8308C108.912 14.8035 108.13 17.7643 111.353 17.1192Z" fill="white"/>
<path d="M118.877 9.84554C121.975 9.75169 122.898 11.4271 122.756 14.2958C122.696 15.507 122.914 16.5953 122.044 17.6419C121.378 18.443 120.732 18.7162 119.73 18.8286C118.702 18.8613 117.891 18.8102 117.058 18.1456C115.723 17.0891 115.904 15.8036 115.847 14.3377C115.756 12.0228 116.198 10.1343 118.877 9.84554ZM120.026 17.1333C120.53 16.899 121.138 16.4558 121.104 15.801C121.044 14.6136 121.571 12.3029 120.304 11.6364C119.952 11.4634 118.945 11.5193 118.567 11.5319C118.085 11.7925 117.533 12.2146 117.557 12.8629C117.635 14.9637 116.772 17.6183 120.026 17.1333Z" fill="white"/>
<path d="M59.6893 9.84554C61.6713 9.76459 63.4478 10.5362 63.5791 12.8144C63.729 15.4162 63.9138 18.5173 60.5373 18.83C57.5628 19.0387 56.5129 17.0001 56.691 14.3617C56.7724 13.1552 56.542 12.0776 57.4076 11.0199C58.0552 10.2283 58.7144 9.96205 59.6893 9.84554ZM60.8154 17.1226C62.1179 16.678 61.9879 15.527 61.9785 14.3845C61.9579 11.9098 61.892 11.4553 59.4225 11.5294C58.9152 11.7714 58.3771 12.1718 58.3766 12.8462C58.3754 14.5786 57.7873 17.9346 60.8154 17.1226Z" fill="white"/>
<path d="M100.809 6.90769C103.018 6.65306 104.432 7.06336 105.341 9.22837C104.772 9.45051 104.337 9.55897 103.749 9.71038C103.249 8.65204 102.439 8.38556 101.339 8.53108C100.361 8.66043 99.7614 9.46302 99.9523 10.4421C100.086 11.1283 101.034 11.5492 101.618 11.7758C103.24 12.4047 105.039 13.0821 105.389 15.0393C105.541 15.859 105.361 16.7063 104.889 17.3911C104.305 18.2312 103.564 18.6157 102.59 18.7894C100.453 18.8386 98.9035 18.7524 98.0781 16.4215C98.5957 16.2437 99.0724 16.148 99.6146 15.9372C99.7906 16.3549 100.043 16.8008 100.477 16.9992C101.074 17.2346 102.194 17.2404 102.794 17.0497C103.609 16.7906 103.995 15.753 103.684 14.9949C103.234 13.8986 101.649 13.6012 100.675 13.1614C99.7146 12.7279 98.9198 12.2331 98.497 11.2088C98.1866 10.4713 98.2678 9.48837 98.5886 8.77582C99.1146 7.60903 99.7276 7.34392 100.809 6.90769Z" fill="white"/>
<path d="M83.2456 7.06948L84.8646 7.05664C84.8672 8.17641 84.8964 9.42952 84.8315 10.5375C86.0894 9.53319 88.0311 9.58814 89.1683 10.7494C89.5754 11.1713 89.8612 11.6973 89.9943 12.2706C90.1684 13.0004 90.1008 14.2601 90.1021 15.0652L90.1106 18.6798L88.4662 18.6733C88.4292 17.1013 88.4565 15.434 88.4565 13.8549C88.4669 12.6916 88.526 12.2042 87.4558 11.5315C87.1557 11.5207 86.855 11.5132 86.5544 11.5087C84.5159 11.4873 84.8516 13.4735 84.8568 14.9279L84.8659 18.6794L83.2216 18.6758C83.1209 16.0578 83.2488 13.3397 83.2001 10.7116C83.1787 9.57118 83.1527 8.19468 83.2456 7.06948Z" fill="white"/>
<path d="M47.9797 7.06055L49.6046 7.06919C49.6172 7.87683 49.6616 9.81288 49.5723 10.5456C51.6348 9.10073 54.4321 10.0429 54.8033 12.4042C55.0592 14.0327 54.9023 16.9635 54.9066 18.681C54.3584 18.6751 53.81 18.6759 53.2618 18.6832C53.2079 17.1495 53.2521 15.3561 53.252 13.8025C53.2595 13.122 53.2767 12.459 52.7519 11.9389C51.8807 11.0756 49.8733 11.3562 49.6614 12.7367C49.5502 13.4617 49.5946 14.2833 49.5982 15.027L49.6145 18.6792C49.0663 18.6741 48.518 18.6765 47.9697 18.6864C47.9419 18.1713 47.9373 17.5761 47.949 17.0595C48.024 13.7574 47.8315 10.3521 47.9797 7.06055Z" fill="white"/>
<path d="M22.2703 19.4682C23.96 19.2652 25.5183 20.3785 25.8406 22.0676C26.0003 22.9062 25.8207 23.7745 25.3417 24.4788C24.8215 25.2461 23.9917 25.7384 23.0938 25.9101C22.237 25.9575 21.5413 25.8277 20.8169 25.3235C20.117 24.8342 19.6379 24.0854 19.4842 23.2407C19.328 22.4003 19.5108 21.5319 19.9919 20.8279C20.5872 19.9657 21.2894 19.6443 22.2703 19.4682Z" fill="white"/>
<path d="M70.7684 10.0021L72.3945 10C72.4121 10.5092 72.3958 11.1347 72.3958 11.6522C72.3841 12.8906 72.4166 14.1363 72.4108 15.3723C72.4056 16.3312 72.1912 17.1852 71.4879 17.8641C70.7463 18.5804 69.9365 18.8257 68.926 18.8122C67.9129 18.7986 67.083 18.5472 66.3634 17.8023C66.0134 17.4459 65.7634 17.002 65.64 16.516C65.425 15.6549 65.5179 11.1201 65.5322 10.0006L67.1654 9.99414L67.1492 13.8723C67.1466 14.5605 67.1154 15.3235 67.1999 16.0144C67.3616 17.3352 69.4644 17.4794 70.2722 16.7518C70.5567 16.4961 70.6905 16.1417 70.7106 15.754C70.8099 13.8457 70.6684 11.9105 70.7684 10.0021Z" fill="white"/>
<path d="M38.1341 7.08676L46.2303 7.05762C46.2812 7.70192 46.2836 8.06153 46.2432 8.70007L43.0023 8.70073L43.0018 15.4234L43.0075 18.6378C42.5175 18.6604 41.8733 18.6452 41.3719 18.6476C41.2951 15.3761 41.4354 12.0115 41.3333 8.73878C40.2615 8.72561 39.1895 8.72993 38.1178 8.75181C38.1046 8.15584 38.1048 7.68345 38.1341 7.08676Z" fill="white"/>
<path d="M125.559 7.65794L127.185 7.64746C127.211 8.38266 127.174 9.22652 127.19 9.99578C127.811 10.0023 128.433 10 129.054 9.9889C129.078 10.5673 129.074 11.0558 129.062 11.6327L127.164 11.6351L127.152 12.8465C127.146 13.5852 126.982 16.353 127.396 16.9509C127.595 17.2372 128.653 17.1629 129.057 17.1536C129.103 17.5848 129.088 18.0951 129.087 18.5347L129.05 18.6943C128.871 18.83 128.703 18.8199 128.484 18.8221C124.827 18.8586 125.532 15.6688 125.491 13.1149C125.483 12.5947 125.485 12.1081 125.478 11.6245L123.994 11.6398C123.974 11.0967 123.99 10.5445 123.998 10.0005L125.539 9.99846C125.527 9.21827 125.535 8.43787 125.559 7.65794Z" fill="white"/>
<path d="M93.0629 7.65524L94.6968 7.65039V9.99851C95.3176 10.004 95.9391 10.0001 96.5599 9.98685C96.5924 10.5826 96.5866 11.0394 96.5703 11.6332L94.7117 11.6306C94.6591 13.0587 94.6922 14.5034 94.6773 15.9318C94.6617 17.4134 95.4878 17.1799 96.6197 17.1517L96.6307 18.7115C96.5846 18.7449 96.4996 18.7925 96.4418 18.7956C95.4072 18.8514 94.4364 18.8123 93.7058 17.9998C93.422 17.681 93.2233 17.2943 93.1291 16.8764C92.9992 16.3069 93.0135 12.3798 93.0486 11.6285L91.5257 11.6399C91.5069 11.0805 91.5179 10.5602 91.5309 10.0019L93.0473 9.99904C93.0453 9.21773 93.0505 8.43642 93.0629 7.65524Z" fill="white"/>
<path d="M0 6.42146L17.0121 6.42484C19.8465 6.42445 22.892 6.48437 25.7083 6.41504L25.706 8.05939C22.8048 8.06064 19.7727 8.10949 16.8831 8.05874L16.8786 25.7386C16.3433 25.7374 15.7827 25.7273 15.2496 25.7399C15.2091 24.8162 15.2377 23.9046 15.2231 22.9827C15.1446 18.0317 15.353 13.0026 15.2019 8.06155L13.6492 8.059L13.648 19.8825L13.6509 23.7352C13.6514 24.3183 13.6797 25.1824 13.6436 25.7406C13.1224 25.7364 12.5732 25.723 12.0546 25.7434C11.9573 23.8899 12.0248 21.3825 12.0254 19.478L12.0277 8.05998L10.4491 8.0592L10.4517 25.74C9.92084 25.7362 9.35585 25.7221 8.82794 25.7426C8.71871 20.6021 8.87158 15.4171 8.81047 10.2725C8.80177 9.54395 8.79846 8.78608 8.81508 8.05972L0 8.06057V6.42146Z" fill="white"/>
<path d="M0 3.21488C2.96883 3.24946 5.98753 3.26521 8.9549 3.22942C14.5174 3.16233 20.1401 3.33883 25.6958 3.20801L25.7128 4.85564L0 4.85059V3.21488Z" fill="white"/>
<path d="M0 0H25.6927L25.7162 1.62357L0 1.61989V0Z" fill="white"/>
<path d="M133 17.8309C132.395 19.0589 131.015 19.1162 130.516 18.162C129.775 16.7475 131.995 15.0006 133 17.2079V17.8309ZM131.878 18.6233C133.179 18.0429 132.921 16.3962 131.555 16.3769C130.111 16.9614 130.404 18.5357 131.878 18.6233Z" fill="white"/>
<path d="M131.202 16.7539C131.443 16.7556 131.997 16.7859 132.192 16.9111C132.26 17.2041 132.021 17.4537 132.004 17.7179C131.997 17.8393 132.201 17.996 132.196 18.2413L132.032 18.2326C131.855 18.0244 131.728 17.8843 131.53 17.6907C131.456 17.9106 131.423 18.0038 131.311 18.2055L131.252 18.1452C131.186 17.6016 131.191 17.2933 131.202 16.7539Z" fill="white"/>
</g>
<defs>
<clipPath id="clip0_4659_12347">
<rect width="133" height="26" fill="white"/>
</clipPath>
</defs>
</svg>
