<svg width="53" height="24" viewBox="0 0 53 24" fill="none" xmlns="http://www.w3.org/2000/svg">
<g clip-path="url(#clip0_4659_12365)">
<path d="M24.9005 0H28.5898C29.0911 0.706434 29.4298 1.84728 29.9228 2.59773C30.0509 2.79299 30.265 3.35263 30.385 3.59865L34.1049 11.1298C34.3763 11.692 34.6315 12.2744 34.8913 12.8425C34.9998 13.0795 35.1501 13.3051 35.2619 13.5418C35.8227 14.8099 36.5246 16.0068 37.0768 17.2766C37.1125 17.3588 37.1604 17.4341 37.2461 17.4559C37.3716 17.4123 37.4401 17.2186 37.5048 17.0849L42.8147 6.27654C42.956 5.98817 43.0789 5.69225 43.2192 5.40477L44.9184 2.00777C45.1725 1.50674 45.3852 0.991174 45.6603 0.495487C45.7747 0.289524 45.8617 0.18268 45.9737 0H49.6633C49.8535 0.478611 49.8939 1.21628 49.971 1.73252L50.4443 4.92865L50.9143 8.13587C50.9766 8.55083 50.9774 8.90491 51.1236 9.30624C51.1451 9.36547 51.1733 9.85397 51.1891 9.96599L51.7455 14.0093C51.8073 14.452 51.9297 14.972 51.9629 15.4048C52.0403 16.4097 52.2786 17.3449 52.4183 18.3326L52.6981 20.3744C52.7421 20.705 52.8469 22.0766 53.0009 22.3112V23.8782C52.4429 23.8798 48.9752 23.9368 48.7389 23.826C48.6079 23.4985 48.6198 23.1544 48.5668 22.8134C48.4602 22.1269 48.3957 21.4275 48.2997 20.7409L47.3365 13.8183C47.2609 13.2376 46.7027 8.635 46.5133 8.51489C46.342 8.5514 46.0061 9.38976 45.8956 9.59098C45.5397 10.24 45.2473 10.9645 44.9137 11.6276L40.2731 20.9445C39.9323 21.6298 39.6463 22.3179 39.2825 22.9839C39.1365 23.2512 39.0022 23.6236 38.8006 23.8519C38.6484 23.9092 36.1817 23.8893 35.7958 23.8954C35.7047 23.8332 35.6209 23.7683 35.5683 23.6695C35.0394 22.6734 34.595 21.6208 34.0917 20.6185L29.4397 11.2712C29.1636 10.7247 28.4089 9.02465 28.0722 8.62536C27.8624 9.71362 27.7728 10.7323 27.6098 11.8182L26.4077 20.115C26.3334 20.632 26.0881 23.3219 25.8672 23.5952C25.8162 23.6085 25.8328 23.6124 25.781 23.5934C25.6747 23.5544 25.5106 23.3835 25.4385 23.2972C25.0664 22.8521 24.536 22.1577 24.1989 21.7081C23.8402 21.2297 22.2556 19.3083 22.1016 18.9264C22.1223 18.5215 22.2429 17.9837 22.3084 17.5752C22.3659 17.2163 22.416 16.863 22.4674 16.5029L23.3681 10.3363L24.5013 2.47818C24.5671 2.03472 24.7655 0.269837 24.9005 0Z" fill="white"/>
<path d="M0 0H5.3729C5.68899 0.536719 6.09117 0.955296 6.44292 1.42504L9.17798 5.07661C9.24472 5.16487 9.33426 5.2468 9.39824 5.33243C10.1025 6.27492 10.8585 7.17939 11.5111 8.16029C11.5484 8.21626 11.7046 8.30601 11.7698 8.3452C11.9819 8.06543 12.141 7.77764 12.3438 7.50775L16.6956 1.8305C17.0405 1.38832 17.7499 0.328482 18.1147 0H23.5451C23.5793 0.141333 23.6083 0.200079 23.5398 0.32633C23.3743 0.631453 23.0244 0.948821 22.8481 1.2133C22.4142 1.86393 21.9144 2.42364 21.47 3.0676C21.314 3.29363 21.0651 3.52936 20.9098 3.74079C20.7033 4.02186 20.5204 4.29126 20.3051 4.57118L18.0761 7.45793L16.0345 10.0928C15.912 10.2502 15.4124 10.8242 15.3458 10.96C15.1069 11.447 14.8241 11.5771 14.5344 11.982C14.7978 12.1941 15.4809 13.2063 15.7464 13.535C16.5657 14.5316 17.3629 15.5464 18.1374 16.5787C18.8839 17.5651 19.614 18.5264 20.3738 19.5032L23.3519 23.3798C23.4302 23.4837 23.5603 23.6544 23.5929 23.7814C23.4992 23.8877 23.4347 23.9049 23.2865 23.9074C22.9709 23.9127 22.6481 23.9065 22.3325 23.9047L20.4927 23.9012C20.0675 23.9012 19.6422 23.9034 19.2171 23.9079C18.8945 23.9119 18.1549 23.9788 17.9253 23.7027C17.6754 23.4022 17.4264 23.052 17.1831 22.7407L13.4758 17.9074L12.4274 16.5312C12.3055 16.3686 11.8321 15.6697 11.6966 15.6532C11.2984 15.9164 10.9787 16.688 10.6497 17.0469C10.477 17.2353 10.2848 17.4369 10.1302 17.6393L7.10247 21.5775C6.94582 21.778 6.5184 22.5209 6.37729 22.6314C5.93701 22.9761 5.72685 23.6263 5.31206 23.8964C4.77445 23.9265 4.15758 23.9172 3.61264 23.9036C2.41985 23.8739 1.18695 23.9466 0 23.9038V23.506C0.154226 23.3727 0.381755 22.9433 0.527125 22.7561C0.632338 22.5974 0.844685 22.4484 0.94584 22.2947C1.26133 21.8152 1.59195 21.3666 1.94296 20.9134L7.0599 14.2545C7.24022 14.0194 7.55374 13.695 7.69828 13.4559C8.03636 12.8966 8.49964 12.4821 8.87181 11.9688C8.75266 11.8544 8.39457 11.3737 8.26482 11.2103C7.67517 10.4699 7.09895 9.71872 6.53644 8.95719C6.39323 8.7642 6.21104 8.56826 6.05846 8.3716L4.80093 6.73014L1.78969 2.80956C1.28569 2.15835 0.792974 1.46092 0.26168 0.825798C0.161964 0.706595 0.143211 0.57853 0 0.430509V0Z" fill="white"/>
</g>
<defs>
<clipPath id="clip0_4659_12365">
<rect width="53" height="24" fill="white"/>
</clipPath>
</defs>
</svg>
